# xmcd
#
# Track frame offsets:
#   150
#   12774
#   33064
#   53234
#   68687
#   93840
#   118444
#   137741
#   156947
#   180454
#   196655
#   218342
#   241050
#   259455
#   278675
#   286436
#   308352
#
# Disc length: 4397 seconds
#
# Revision: 0
# Processed by: cddbd v1.5.1PL0 Copyright (c) Steve Scherf et al.
# Submitted via: uFREEDB 1.6.0
#
DISCID=df112b11
DTITLE=Mary J. Blige - No More Drama
DYEAR=2002
DGENRE=R and B
TTITLE0=Love
TTITLE1=Family Affair
TTITLE2=Steal Away
TTITLE3=Crazy Games
TTITLE4=PMS
TTITLE5=No More Drama
TTITLE6=Keep It Moving
TTITLE7=Destiny
TTITLE8=Where I´ve Been feat. Eve
TTITLE9=Beautiful Day
TTITLE10=Dance For Me
TTITLE11=Flying Away
TTITLE12=Never Been
TTITLE13=2U
TTITLE14=In The Meantime
TTITLE15=Testimony
TTITLE16=Checkin´For Me
EXTD=
EXTT0=
EXTT1=
EXTT2=
EXTT3=
EXTT4=
EXTT5=
EXTT6=
EXTT7=
EXTT8=
EXTT9=
EXTT10=
EXTT11=
EXTT12=
EXTT13=
EXTT14=
EXTT15=
EXTT16=
PLAYORDER=
